<svg width="3877" height="2359" xmlns="http://www.w3.org/2000/svg" xmlns:xlink="http://www.w3.org/1999/xlink" overflow="hidden"><defs><clipPath id="clip0"><rect x="1815" y="-4" width="3877" height="2359"/></clipPath><clipPath id="clip1"><rect x="1817" y="0" width="3870" height="2351"/></clipPath><clipPath id="clip2"><rect x="1948" y="169" width="3692" height="2079"/></clipPath><clipPath id="clip3"><rect x="1817" y="0" width="3870" height="2351"/></clipPath><clipPath id="clip4"><rect x="1817" y="0" width="3870" height="2351"/></clipPath><clipPath id="clip5"><rect x="1817" y="0" width="3870" height="2351"/></clipPath><clipPath id="clip6"><rect x="1817" y="0" width="3870" height="2351"/></clipPath><clipPath id="clip7"><rect x="1817" y="0" width="3870" height="2351"/></clipPath><clipPath id="clip8"><rect x="1817" y="0" width="3870" height="2351"/></clipPath><clipPath id="clip9"><rect x="1817" y="0" width="3870" height="2351"/></clipPath><clipPath id="clip10"><rect x="1817" y="0" width="3870" height="2351"/></clipPath><clipPath id="clip11"><rect x="1817" y="0" width="3870" height="2351"/></clipPath><clipPath id="clip12"><rect x="1817" y="0" width="3870" height="2351"/></clipPath><clipPath id="clip13"><rect x="1817" y="0" width="3870" height="2351"/></clipPath><clipPath id="clip14"><rect x="1817" y="0" width="3870" height="2351"/></clipPath><clipPath id="clip15"><rect x="1817" y="0" width="3870" height="2351"/></clipPath></defs><g clip-path="url(#clip0)" transform="translate(-1815 4)"><rect x="1817" y="0" width="3871" height="2351" fill="#FFFFFF" fill-opacity="1"/><g clip-path="url(#clip1)"><path d="M1948.5 1899.56 5637.5 1899.56M1948.5 1553.55 5637.5 1553.55M1948.5 1207.54 5637.5 1207.54M1948.5 861.528 5637.5 861.528M1948.5 515.517 5637.5 515.517M1948.5 169.5 5637.5 169.5" stroke="#D9D9D9" stroke-width="3.4375" stroke-linecap="butt" stroke-linejoin="round" stroke-miterlimit="10" stroke-opacity="1" fill="none" fill-rule="nonzero"/></g><g clip-path="url(#clip2)"><path d="M2265.07 2210.07 2554.08 2210.07 2554.08 2245 2265.07 2245ZM3187.1 2198.07 3476.11 2198.07 3476.11 2245 3187.1 2245ZM4109.13 2113.07 4398.14 2113.07 4398.14 2245 4109.13 2245ZM5032.17 373.012 5321.17 373.012 5321.17 2245 5032.17 2245Z" fill="#4472C4" fill-rule="nonzero" fill-opacity="1"/></g><g clip-path="url(#clip3)"><path d="M1948.5 2244.5 5637.5 2244.5" stroke="#D9D9D9" stroke-width="3.4375" stroke-linecap="butt" stroke-linejoin="round" stroke-miterlimit="10" stroke-opacity="1" fill="none" fill-rule="evenodd"/></g><g clip-path="url(#clip4)"><text fill="#595959" fill-opacity="1" font-family="Calibri,Calibri_MSFontService,sans-serif" font-style="normal" font-variant="normal" font-weight="400" font-stretch="normal" font-size="41" text-anchor="start" direction="ltr" writing-mode="lr-tb" unicode-bidi="normal" text-decoration="none" transform="matrix(1 0 0 1 1888.88 2255)">0</text></g><g clip-path="url(#clip5)"><text fill="#595959" fill-opacity="1" font-family="Calibri,Calibri_MSFontService,sans-serif" font-style="normal" font-variant="normal" font-weight="400" font-stretch="normal" font-size="41" text-anchor="start" direction="ltr" writing-mode="lr-tb" unicode-bidi="normal" text-decoration="none" transform="matrix(1 0 0 1 1867.98 1910)">20</text></g><g clip-path="url(#clip6)"><text fill="#595959" fill-opacity="1" font-family="Calibri,Calibri_MSFontService,sans-serif" font-style="normal" font-variant="normal" font-weight="400" font-stretch="normal" font-size="41" text-anchor="start" direction="ltr" writing-mode="lr-tb" unicode-bidi="normal" text-decoration="none" transform="matrix(1 0 0 1 1867.98 1564)">40</text></g><g clip-path="url(#clip7)"><text fill="#595959" fill-opacity="1" font-family="Calibri,Calibri_MSFontService,sans-serif" font-style="normal" font-variant="normal" font-weight="400" font-stretch="normal" font-size="41" text-anchor="start" direction="ltr" writing-mode="lr-tb" unicode-bidi="normal" text-decoration="none" transform="matrix(1 0 0 1 1867.98 1218)">60</text></g><g clip-path="url(#clip8)"><text fill="#595959" fill-opacity="1" font-family="Calibri,Calibri_MSFontService,sans-serif" font-style="normal" font-variant="normal" font-weight="400" font-stretch="normal" font-size="41" text-anchor="start" direction="ltr" writing-mode="lr-tb" unicode-bidi="normal" text-decoration="none" transform="matrix(1 0 0 1 1867.98 872)">80</text></g><g clip-path="url(#clip9)"><text fill="#595959" fill-opacity="1" font-family="Calibri,Calibri_MSFontService,sans-serif" font-style="normal" font-variant="normal" font-weight="400" font-stretch="normal" font-size="41" text-anchor="start" direction="ltr" writing-mode="lr-tb" unicode-bidi="normal" text-decoration="none" transform="matrix(1 0 0 1 1847.08 526)">100</text></g><g clip-path="url(#clip10)"><text fill="#595959" fill-opacity="1" font-family="Calibri,Calibri_MSFontService,sans-serif" font-style="normal" font-variant="normal" font-weight="400" font-stretch="normal" font-size="41" text-anchor="start" direction="ltr" writing-mode="lr-tb" unicode-bidi="normal" text-decoration="none" transform="matrix(1 0 0 1 1847.08 181)">120</text></g><g clip-path="url(#clip11)"><text fill="#595959" fill-opacity="1" font-family="Calibri,Calibri_MSFontService,sans-serif" font-style="normal" font-variant="normal" font-weight="400" font-stretch="normal" font-size="41" text-anchor="start" direction="ltr" writing-mode="lr-tb" unicode-bidi="normal" text-decoration="none" transform="matrix(1 0 0 1 2398.21 2310)">C</text></g><g clip-path="url(#clip12)"><text fill="#595959" fill-opacity="1" font-family="Calibri,Calibri_MSFontService,sans-serif" font-style="normal" font-variant="normal" font-weight="400" font-stretch="normal" font-size="41" text-anchor="start" direction="ltr" writing-mode="lr-tb" unicode-bidi="normal" text-decoration="none" transform="matrix(1 0 0 1 2992.55 2310)">Native Image (GraalVM EE 21.2.0 JDK11)</text></g><g clip-path="url(#clip13)"><text fill="#595959" fill-opacity="1" font-family="Calibri,Calibri_MSFontService,sans-serif" font-style="normal" font-variant="normal" font-weight="400" font-stretch="normal" font-size="41" text-anchor="start" direction="ltr" writing-mode="lr-tb" unicode-bidi="normal" text-decoration="none" transform="matrix(1 0 0 1 4230.06 2310)">Go</text></g><g clip-path="url(#clip14)"><text fill="#595959" fill-opacity="1" font-family="Calibri,Calibri_MSFontService,sans-serif" font-style="normal" font-variant="normal" font-weight="400" font-stretch="normal" font-size="41" text-anchor="start" direction="ltr" writing-mode="lr-tb" unicode-bidi="normal" text-decoration="none" transform="matrix(1 0 0 1 4980.6 2310)">Java (OpenJDK 11.0.12)</text></g><g clip-path="url(#clip15)"><text fill="#595959" fill-opacity="1" font-family="Calibri,Calibri_MSFontService,sans-serif" font-style="normal" font-variant="normal" font-weight="400" font-stretch="normal" font-size="64" text-anchor="start" direction="ltr" writing-mode="lr-tb" unicode-bidi="normal" text-decoration="none" transform="matrix(1 0 0 1 3529.95 95)">Time to Run / ms</text></g><rect x="1817.5" y="0.499836" width="3871" height="2351" stroke="#D9D9D9" stroke-width="3.4375" stroke-linecap="butt" stroke-linejoin="round" stroke-miterlimit="10" stroke-opacity="1" fill="none"/></g></svg>