<svg width="3575" height="2066" xmlns="http://www.w3.org/2000/svg" xmlns:xlink="http://www.w3.org/1999/xlink" overflow="hidden"><defs><clipPath id="clip0"><rect x="1672" y="-4" width="3575" height="2066"/></clipPath><clipPath id="clip1"><rect x="1675" y="0" width="3568" height="2057"/></clipPath><clipPath id="clip2"><rect x="1785" y="169" width="3411" height="1786"/></clipPath><clipPath id="clip3"><rect x="1675" y="0" width="3568" height="2057"/></clipPath><clipPath id="clip4"><rect x="1675" y="0" width="3568" height="2057"/></clipPath><clipPath id="clip5"><rect x="1675" y="0" width="3568" height="2057"/></clipPath><clipPath id="clip6"><rect x="1675" y="0" width="3568" height="2057"/></clipPath><clipPath id="clip7"><rect x="1675" y="0" width="3568" height="2057"/></clipPath><clipPath id="clip8"><rect x="1675" y="0" width="3568" height="2057"/></clipPath><clipPath id="clip9"><rect x="1675" y="0" width="3568" height="2057"/></clipPath><clipPath id="clip10"><rect x="1675" y="0" width="3568" height="2057"/></clipPath><clipPath id="clip11"><rect x="1675" y="0" width="3568" height="2057"/></clipPath><clipPath id="clip12"><rect x="1675" y="0" width="3568" height="2057"/></clipPath><clipPath id="clip13"><rect x="1675" y="0" width="3568" height="2057"/></clipPath><clipPath id="clip14"><rect x="1675" y="0" width="3568" height="2057"/></clipPath><clipPath id="clip15"><rect x="1675" y="0" width="3568" height="2057"/></clipPath><clipPath id="clip16"><rect x="1675" y="0" width="3568" height="2057"/></clipPath><clipPath id="clip17"><rect x="1675" y="0" width="3568" height="2057"/></clipPath></defs><g clip-path="url(#clip0)" transform="translate(-1672 4)"><rect x="1675" y="0" width="3568" height="2058" fill="#FFFFFF" fill-opacity="1"/><g clip-path="url(#clip1)"><path d="M1785.5 1728.56 5192.5 1728.56M1785.5 1506.55 5192.5 1506.55M1785.5 1283.54 5192.5 1283.54M1785.5 1060.53 5192.5 1060.53M1785.5 838.528 5192.5 838.528M1785.5 615.52 5192.5 615.52M1785.5 392.513 5192.5 392.513M1785.5 169.5 5192.5 169.5" stroke="#D9D9D9" stroke-width="3.4375" stroke-linecap="butt" stroke-linejoin="round" stroke-miterlimit="10" stroke-opacity="1" fill="none" fill-rule="nonzero"/></g><g clip-path="url(#clip2)"><path d="M2077.07 1903.06 2344.08 1903.06 2344.08 1952 2077.07 1952ZM2929.1 1766.06 3196.1 1766.06 3196.1 1952 2929.1 1952ZM3781.12 1910.06 4048.13 1910.06 4048.13 1952 3781.12 1952ZM4633.15 344.011 4900.16 344.011 4900.16 1952 4633.15 1952Z" fill="#4472C4" fill-rule="nonzero" fill-opacity="1"/></g><g clip-path="url(#clip3)"><path d="M1785.5 1951.5 5192.5 1951.5" stroke="#D9D9D9" stroke-width="3.4375" stroke-linecap="butt" stroke-linejoin="round" stroke-miterlimit="10" stroke-opacity="1" fill="none" fill-rule="evenodd"/></g><g clip-path="url(#clip4)"><text fill="#595959" fill-opacity="1" font-family="Calibri,Calibri_MSFontService,sans-serif" font-style="normal" font-variant="normal" font-weight="400" font-stretch="normal" font-size="41" text-anchor="start" direction="ltr" writing-mode="lr-tb" unicode-bidi="normal" text-decoration="none" transform="matrix(1 0 0 1 1725.9 1962)">0</text></g><g clip-path="url(#clip5)"><text fill="#595959" fill-opacity="1" font-family="Calibri,Calibri_MSFontService,sans-serif" font-style="normal" font-variant="normal" font-weight="400" font-stretch="normal" font-size="41" text-anchor="start" direction="ltr" writing-mode="lr-tb" unicode-bidi="normal" text-decoration="none" transform="matrix(1 0 0 1 1705 1739)">10</text></g><g clip-path="url(#clip6)"><text fill="#595959" fill-opacity="1" font-family="Calibri,Calibri_MSFontService,sans-serif" font-style="normal" font-variant="normal" font-weight="400" font-stretch="normal" font-size="41" text-anchor="start" direction="ltr" writing-mode="lr-tb" unicode-bidi="normal" text-decoration="none" transform="matrix(1 0 0 1 1705 1517)">20</text></g><g clip-path="url(#clip7)"><text fill="#595959" fill-opacity="1" font-family="Calibri,Calibri_MSFontService,sans-serif" font-style="normal" font-variant="normal" font-weight="400" font-stretch="normal" font-size="41" text-anchor="start" direction="ltr" writing-mode="lr-tb" unicode-bidi="normal" text-decoration="none" transform="matrix(1 0 0 1 1705 1294)">30</text></g><g clip-path="url(#clip8)"><text fill="#595959" fill-opacity="1" font-family="Calibri,Calibri_MSFontService,sans-serif" font-style="normal" font-variant="normal" font-weight="400" font-stretch="normal" font-size="41" text-anchor="start" direction="ltr" writing-mode="lr-tb" unicode-bidi="normal" text-decoration="none" transform="matrix(1 0 0 1 1705 1071)">40</text></g><g clip-path="url(#clip9)"><text fill="#595959" fill-opacity="1" font-family="Calibri,Calibri_MSFontService,sans-serif" font-style="normal" font-variant="normal" font-weight="400" font-stretch="normal" font-size="41" text-anchor="start" direction="ltr" writing-mode="lr-tb" unicode-bidi="normal" text-decoration="none" transform="matrix(1 0 0 1 1705 849)">50</text></g><g clip-path="url(#clip10)"><text fill="#595959" fill-opacity="1" font-family="Calibri,Calibri_MSFontService,sans-serif" font-style="normal" font-variant="normal" font-weight="400" font-stretch="normal" font-size="41" text-anchor="start" direction="ltr" writing-mode="lr-tb" unicode-bidi="normal" text-decoration="none" transform="matrix(1 0 0 1 1705 626)">60</text></g><g clip-path="url(#clip11)"><text fill="#595959" fill-opacity="1" font-family="Calibri,Calibri_MSFontService,sans-serif" font-style="normal" font-variant="normal" font-weight="400" font-stretch="normal" font-size="41" text-anchor="start" direction="ltr" writing-mode="lr-tb" unicode-bidi="normal" text-decoration="none" transform="matrix(1 0 0 1 1705 403)">70</text></g><g clip-path="url(#clip12)"><text fill="#595959" fill-opacity="1" font-family="Calibri,Calibri_MSFontService,sans-serif" font-style="normal" font-variant="normal" font-weight="400" font-stretch="normal" font-size="41" text-anchor="start" direction="ltr" writing-mode="lr-tb" unicode-bidi="normal" text-decoration="none" transform="matrix(1 0 0 1 1705 181)">80</text></g><g clip-path="url(#clip13)"><text fill="#595959" fill-opacity="1" font-family="Calibri,Calibri_MSFontService,sans-serif" font-style="normal" font-variant="normal" font-weight="400" font-stretch="normal" font-size="41" text-anchor="start" direction="ltr" writing-mode="lr-tb" unicode-bidi="normal" text-decoration="none" transform="matrix(1 0 0 1 2200.03 2017)">C</text></g><g clip-path="url(#clip14)"><text fill="#595959" fill-opacity="1" font-family="Calibri,Calibri_MSFontService,sans-serif" font-style="normal" font-variant="normal" font-weight="400" font-stretch="normal" font-size="41" text-anchor="start" direction="ltr" writing-mode="lr-tb" unicode-bidi="normal" text-decoration="none" transform="matrix(1 0 0 1 2723.97 2017)">Native Image (GraalVM EE 21.2.0 JDK11)</text></g><g clip-path="url(#clip15)"><text fill="#595959" fill-opacity="1" font-family="Calibri,Calibri_MSFontService,sans-serif" font-style="normal" font-variant="normal" font-weight="400" font-stretch="normal" font-size="41" text-anchor="start" direction="ltr" writing-mode="lr-tb" unicode-bidi="normal" text-decoration="none" transform="matrix(1 0 0 1 3891.07 2017)">Go</text></g><g clip-path="url(#clip16)"><text fill="#595959" fill-opacity="1" font-family="Calibri,Calibri_MSFontService,sans-serif" font-style="normal" font-variant="normal" font-weight="400" font-stretch="normal" font-size="41" text-anchor="start" direction="ltr" writing-mode="lr-tb" unicode-bidi="normal" text-decoration="none" transform="matrix(1 0 0 1 4571.21 2017)">Java (OpenJDK 11.0.12)</text></g><g clip-path="url(#clip17)"><text fill="#595959" fill-opacity="1" font-family="Calibri,Calibri_MSFontService,sans-serif" font-style="normal" font-variant="normal" font-weight="400" font-stretch="normal" font-size="64" text-anchor="start" direction="ltr" writing-mode="lr-tb" unicode-bidi="normal" text-decoration="none" transform="matrix(1 0 0 1 3328.46 95)">RSS / MBs</text></g><rect x="1675.5" y="0.499836" width="3568" height="2058" stroke="#D9D9D9" stroke-width="3.4375" stroke-linecap="butt" stroke-linejoin="round" stroke-miterlimit="10" stroke-opacity="1" fill="none"/></g></svg>